<mxfile host="app.diagrams.net" modified="2023-11-09T13:44:07.339Z" agent="Mozilla/5.0 (Macintosh; Intel Mac OS X 10.15; rv:109.0) Gecko/20100101 Firefox/119.0" etag="09fA22hu762akKyB32rl" version="22.1.0" type="device">
  <diagram name="Page-1" id="dQCLGi0GSBkdqrZzcw90">
    <mxGraphModel dx="1570" dy="1027" grid="1" gridSize="10" guides="1" tooltips="1" connect="1" arrows="1" fold="1" page="1" pageScale="1" pageWidth="850" pageHeight="1100" math="0" shadow="0">
      <root>
        <mxCell id="0" />
        <mxCell id="1" parent="0" />
        <mxCell id="a8omIGzoTG3a9EOyQ57A-7" style="edgeStyle=orthogonalEdgeStyle;rounded=0;orthogonalLoop=1;jettySize=auto;html=1;exitX=1;exitY=0.5;exitDx=0;exitDy=0;exitPerimeter=0;entryX=0.5;entryY=0;entryDx=0;entryDy=0;" edge="1" parent="1" source="a8omIGzoTG3a9EOyQ57A-1" target="a8omIGzoTG3a9EOyQ57A-2">
          <mxGeometry relative="1" as="geometry" />
        </mxCell>
        <object placeholders="1" c4Name="Usuário" c4Type="Person" c4Description="Usuário pessoal" label="&lt;font style=&quot;font-size: 16px&quot;&gt;&lt;b&gt;%c4Name%&lt;/b&gt;&lt;/font&gt;&lt;div&gt;[%c4Type%]&lt;/div&gt;&lt;br&gt;&lt;div&gt;&lt;font style=&quot;font-size: 11px&quot;&gt;&lt;font color=&quot;#cccccc&quot;&gt;%c4Description%&lt;/font&gt;&lt;/div&gt;" id="a8omIGzoTG3a9EOyQ57A-1">
          <mxCell style="html=1;fontSize=11;dashed=0;whiteSpace=wrap;fillColor=#083F75;strokeColor=#06315C;fontColor=#ffffff;shape=mxgraph.c4.person2;align=center;metaEdit=1;points=[[0.5,0,0],[1,0.5,0],[1,0.75,0],[0.75,1,0],[0.5,1,0],[0.25,1,0],[0,0.75,0],[0,0.5,0]];resizable=0;" vertex="1" parent="1">
            <mxGeometry x="80" y="180" width="200" height="180" as="geometry" />
          </mxCell>
        </object>
        <mxCell id="a8omIGzoTG3a9EOyQ57A-2" value="" style="rounded=1;whiteSpace=wrap;html=1;fillColor=#083F75;" vertex="1" parent="1">
          <mxGeometry x="260" y="510" width="270" height="210" as="geometry" />
        </mxCell>
        <mxCell id="a8omIGzoTG3a9EOyQ57A-4" value="Web Application System" style="text;html=1;align=center;verticalAlign=middle;whiteSpace=wrap;rounded=0;fontColor=#FFFFFF;spacingTop=0;fontStyle=1;spacing=0;fontSize=16;" vertex="1" parent="1">
          <mxGeometry x="285" y="530" width="225" height="30" as="geometry" />
        </mxCell>
        <mxCell id="a8omIGzoTG3a9EOyQ57A-5" value="[System]" style="text;html=1;strokeColor=none;fillColor=none;align=center;verticalAlign=middle;whiteSpace=wrap;rounded=0;fontColor=#FFFFFF;" vertex="1" parent="1">
          <mxGeometry x="365" y="550" width="60" height="30" as="geometry" />
        </mxCell>
        <mxCell id="a8omIGzoTG3a9EOyQ57A-6" value="Pagina web onde o usuário pode consultar, cadastrar ou remover suas tarefas." style="text;html=1;strokeColor=none;fillColor=none;align=center;verticalAlign=middle;whiteSpace=wrap;rounded=0;fontColor=#FFFFFF;" vertex="1" parent="1">
          <mxGeometry x="275" y="580" width="245" height="110" as="geometry" />
        </mxCell>
        <mxCell id="a8omIGzoTG3a9EOyQ57A-8" value="O usuário irá acessar a pagina web e cadastrar, alterar, ou remover as suas tarefas." style="text;html=1;strokeColor=none;fillColor=none;align=center;verticalAlign=middle;whiteSpace=wrap;rounded=0;fontStyle=1" vertex="1" parent="1">
          <mxGeometry x="200" y="370" width="190" height="110" as="geometry" />
        </mxCell>
      </root>
    </mxGraphModel>
  </diagram>
</mxfile>
